<svg width="17" height="18" viewBox="0 0 17 18" fill="none" xmlns="http://www.w3.org/2000/svg">
<path fill-rule="evenodd" clip-rule="evenodd" d="M8.83333 6.5C8.83333 4.85453 9.51705 3.32064 10.6998 2.22304L11.9312 1.0804L10.2764 0.791302C9.80286 0.708572 9.32057 0.666668 8.83333 0.666668C4.23096 0.666668 0.5 4.39763 0.5 9C0.5 13.6024 4.23096 17.3333 8.83333 17.3333C11.6545 17.3333 14.2369 15.9199 15.7722 13.6163L16.7026 12.2202L15.028 12.3224C14.9081 12.3297 14.7876 12.3333 14.6667 12.3333C11.445 12.3333 8.83333 9.72166 8.83333 6.5ZM8.83333 15.6667C5.15143 15.6667 2.16667 12.6819 2.16667 9C2.16667 5.45659 4.93112 2.55886 8.42095 2.34588C7.6139 3.55707 7.16667 4.9932 7.16667 6.5C7.16667 10.1992 9.84475 13.2729 13.3678 13.8879C12.1565 15.0128 10.5508 15.6667 8.83333 15.6667Z" fill="black"/>
</svg>
