<svg width="16" height="16" viewBox="0 0 16 16" fill="none" xmlns="http://www.w3.org/2000/svg">
<path d="M8 0C3.582 0 0 3.582 0 8C0 12.418 3.582 16 8 16C12.418 16 16 12.418 16 8C16 3.582 12.418 0 8 0ZM8.66667 10.7047V8.66667H10.6627C10.6233 9.42867 10.5213 10.16 10.3587 10.8527C9.81 10.7727 9.24267 10.7273 8.66667 10.7047ZM9.97133 12.146C9.63867 13.0327 9.19867 13.8107 8.66667 14.45V12.0367C9.11067 12.0553 9.546 12.0907 9.97133 12.146ZM8.66667 7.33333V5.32333C9.24533 5.30067 9.814 5.25467 10.3653 5.174C10.524 5.85867 10.6247 6.58133 10.6627 7.33333H8.66667ZM8.66667 3.99067V1.55C9.204 2.196 9.64733 2.98333 9.98067 3.88067C9.55267 3.93667 9.114 3.972 8.66667 3.99067ZM10.4687 1.81267C11.2933 2.14333 12.038 2.63133 12.662 3.24333C12.234 3.39933 11.788 3.538 11.316 3.648C11.0867 2.98667 10.7993 2.37467 10.4687 1.81267ZM5.64133 10.8527C5.47867 10.16 5.376 9.42867 5.33733 8.66667H7.33333V10.7047C6.75667 10.7273 6.19067 10.7727 5.64133 10.8527ZM7.33333 12.0367V14.45C6.80133 13.8107 6.36133 13.0327 6.02867 12.146C6.454 12.0907 6.88933 12.0553 7.33333 12.0367ZM5.33733 7.33333C5.37533 6.58133 5.47533 5.85867 5.63467 5.174C6.186 5.25467 6.75467 5.30067 7.33333 5.32333V7.33333H5.33733ZM6.02 3.88067C6.35333 2.98333 6.79667 2.196 7.33333 1.55V3.99067C6.886 3.972 6.44733 3.93667 6.02 3.88067ZM4.68333 3.64733C4.21133 3.53733 3.76533 3.39867 3.338 3.24267C3.96267 2.63067 4.70667 2.14267 5.53133 1.812C5.20067 2.37467 4.91333 2.98667 4.68333 3.64733ZM4.31733 4.926C4.14133 5.69333 4.028 6.49933 3.98933 7.33333H1.36733C1.47733 6.228 1.86 5.202 2.44533 4.32133C3.032 4.562 3.656 4.768 4.31733 4.926ZM4.32333 11.1007C3.66467 11.258 3.04333 11.462 2.45867 11.7007C1.86533 10.8153 1.478 9.78133 1.36733 8.66667H3.99C4.02867 9.51 4.144 10.3253 4.32333 11.1007ZM4.692 12.3787C4.92 13.0293 5.204 13.6327 5.53 14.1867C4.71467 13.86 3.97933 13.3793 3.35933 12.7767C3.78333 12.624 4.22533 12.4867 4.692 12.3787ZM11.308 12.3787C11.7747 12.4873 12.216 12.6233 12.6407 12.7767C12.02 13.3787 11.2847 13.86 10.4693 14.1873C10.7953 13.6327 11.0793 13.0293 11.308 12.3787ZM11.6767 11.1007C11.8567 10.3253 11.9713 9.51 12.0107 8.66667H14.6333C14.522 9.78133 14.1347 10.8153 13.5413 11.7007C12.9567 11.462 12.3347 11.258 11.6767 11.1007ZM12.0107 7.33333C11.972 6.49933 11.858 5.69333 11.6827 4.926C12.344 4.768 12.9687 4.562 13.5553 4.32133C14.14 5.202 14.5227 6.228 14.6327 7.33333H12.0107Z" fill="#474747"/>
</svg>
