<svg width="14" height="16" viewBox="0 0 14 16" fill="none" xmlns="http://www.w3.org/2000/svg">
<path d="M13.1875 0.6875V15.3125C13.1875 15.4617 13.1283 15.6048 13.0228 15.7102C12.9173 15.8157 12.7742 15.875 12.625 15.875H1.37503C1.22584 15.875 1.08277 15.8157 0.977279 15.7102C0.87179 15.6048 0.812527 15.4617 0.812527 15.3125V14.1875H1.93753V14.75H12.0625V1.25H1.93753V2.9375H0.812527V0.6875C0.812527 0.538316 0.87179 0.395242 0.977279 0.289752C1.08277 0.184263 1.22584 0.125 1.37503 0.125H12.625C12.7742 0.125 12.9173 0.184263 13.0228 0.289752C13.1283 0.395242 13.1875 0.538316 13.1875 0.6875ZM4.0244 10.4131L2.16815 8.5625H8.12503V7.4375H2.16815L4.0244 5.58687L3.22565 4.78813L0.413152 7.60063C0.360429 7.65292 0.318583 7.71513 0.290025 7.78368C0.261468 7.85222 0.246765 7.92574 0.246765 8C0.246765 8.07426 0.261468 8.14778 0.290025 8.21632C0.318583 8.28487 0.360429 8.34708 0.413152 8.39937L3.22565 11.2119L4.0244 10.4131Z" fill="white"/>
</svg>
