<svg width="19" height="19" viewBox="0 0 19 19" fill="none" xmlns="http://www.w3.org/2000/svg">
<path fill-rule="evenodd" clip-rule="evenodd" d="M12.6668 1.58325H6.3335C3.71014 1.58325 1.5835 3.7099 1.5835 6.33325V12.6666C1.5835 15.2899 3.71014 17.4166 6.3335 17.4166H12.6668C15.2902 17.4166 17.4168 15.2899 17.4168 12.6666V6.33325C17.4168 3.7099 15.2902 1.58325 12.6668 1.58325ZM3.16683 6.33325C3.16683 4.58435 4.58459 3.16659 6.3335 3.16659H12.6668C14.4157 3.16659 15.8335 4.58435 15.8335 6.33325V12.6666C15.8335 14.4155 14.4157 15.8333 12.6668 15.8333H6.3335C4.58459 15.8333 3.16683 14.4155 3.16683 12.6666V6.33325ZM9.50016 13.4583C7.31403 13.4583 5.54183 11.686 5.54183 9.49992C5.54183 7.31379 7.31403 5.54158 9.50016 5.54158C11.6863 5.54158 13.4585 7.31379 13.4585 9.49992C13.4585 11.686 11.6863 13.4583 9.50016 13.4583ZM9.50016 11.8749C10.8118 11.8749 11.8752 10.8116 11.8752 9.49992C11.8752 8.18824 10.8118 7.12492 9.50016 7.12492C8.18849 7.12492 7.12516 8.18824 7.12516 9.49992C7.12516 10.8116 8.18849 11.8749 9.50016 11.8749ZM14.2502 5.54159C14.2502 5.97881 13.8957 6.33325 13.4585 6.33325C13.0213 6.33325 12.6668 5.97881 12.6668 5.54159C12.6668 5.10436 13.0213 4.74992 13.4585 4.74992C13.8957 4.74992 14.2502 5.10436 14.2502 5.54159Z" fill="#474747"/>
</svg>
