<svg width="12" height="16" viewBox="0 0 12 16" fill="none" xmlns="http://www.w3.org/2000/svg">
<path d="M7.75154 16C6.58367 16 5.73306 15.7251 5.19866 15.1752C4.66478 14.6256 4.39759 14.0328 4.39759 13.3976C4.39759 13.1653 4.44404 12.9699 4.53722 12.8111C4.62812 12.6544 4.76011 12.5246 4.9194 12.4352C5.08085 12.3435 5.27952 12.2978 5.51566 12.2978C5.7518 12.2978 5.9502 12.3435 6.11191 12.4352C6.27336 12.5268 6.40067 12.6523 6.49384 12.8111C6.58701 12.9699 6.63347 13.1653 6.63347 13.3976C6.63347 13.6786 6.56519 13.9076 6.42864 14.0848C6.29184 14.262 6.13039 14.3779 5.94404 14.4332C6.10575 14.6528 6.36037 14.8086 6.70816 14.9003C7.05595 14.9982 7.40375 15.0469 7.75154 15.0469C8.23588 15.0469 8.67377 14.9187 9.06519 14.6622C9.45636 14.4054 9.74538 14.0267 9.93172 13.5258C10.1181 13.0249 10.2112 12.4566 10.2112 11.8212C10.2112 11.1309 10.1086 10.5412 9.90375 10.0527C9.70483 9.55784 9.40991 9.19126 9.01848 8.95293C8.63914 8.71812 8.19974 8.59423 7.75154 8.59569C7.45328 8.59569 7.08085 8.71789 6.63347 8.96227L5.81365 9.36546V8.96227L9.50308 4.12377H4.39759V9.14531C4.39759 9.56087 4.49076 9.90296 4.6771 10.1718C4.86345 10.4407 5.14913 10.575 5.53439 10.575C5.83214 10.575 6.11807 10.4773 6.39143 10.2817C6.66654 10.0843 6.90586 9.84278 7.09933 9.56718C7.12423 9.51189 7.15529 9.47225 7.1925 9.44776C7.22598 9.41869 7.269 9.40246 7.31365 9.40207C7.38193 9.40207 7.46252 9.43565 7.55595 9.50305C7.64297 9.6005 7.68634 9.71361 7.68634 9.84186C7.67565 9.92824 7.66006 10.014 7.63963 10.0986C7.42864 10.5629 7.13655 10.9171 6.76386 11.1615C6.40103 11.4029 5.97243 11.5307 5.53439 11.5281C4.42864 11.5281 3.66453 11.3142 3.2423 10.8868C2.82007 10.4589 2.60883 9.87847 2.60883 9.14556V4.12377H0V3.18889H2.60883V1.06313L2.01258 0.47615V0H3.74538L4.39733 0.32972V3.18889L11.1427 3.17071L11.8137 3.83041L7.6771 7.89914C7.92753 7.80096 8.19117 7.73922 8.4597 7.71585C8.90683 7.71585 9.40991 7.85647 9.96894 8.13747C10.5341 8.4124 10.9689 8.79135 11.2731 9.27356C11.5775 9.75022 11.7731 10.2084 11.8601 10.6482C11.9533 11.0883 12 11.4791 12 11.8212C12 12.6033 11.8321 13.3302 11.4969 14.0025C11.1614 14.6743 10.6522 15.1752 9.96894 15.5052C9.28568 15.8351 8.54646 16 7.75154 16Z" fill="#474747"/>
</svg>
