<svg width="19" height="19" viewBox="0 0 19 19" fill="none" xmlns="http://www.w3.org/2000/svg">
<path fill-rule="evenodd" clip-rule="evenodd" d="M16.7198 3.56897L17.8398 3.69977L17.3363 4.70875C17.0908 5.20079 16.8451 5.69283 16.5991 6.18488C16.5699 6.28909 16.5186 6.38045 16.4428 6.4994C16.4111 6.5491 16.3029 6.7072 16.2978 6.71479C16.2692 6.75765 16.2481 6.79145 16.2329 6.81853V8.70946C16.2329 13.5481 11.5502 16.6229 7.12797 16.6229C6.22307 16.6229 5.53555 16.5795 4.7483 16.4077C3.45274 16.125 2.48859 15.563 2.04739 14.5808L1.59316 13.5696L2.69705 13.4681C3.69567 13.3763 4.5615 13.186 5.22642 12.9313C3.40098 12.6377 2.37801 11.836 2.37801 10.3303V9.53862H3.16968C3.34362 9.53862 3.50046 9.5245 3.64068 9.4986C2.27066 8.67947 1.58446 7.36542 1.58446 5.54279C1.58431 5.46511 1.58431 5.46511 1.58385 5.38204C1.5787 4.46336 1.62804 3.97248 1.87954 3.34597C2.04072 2.94445 2.2737 2.57274 2.58725 2.23216L3.18465 1.58325L3.76547 2.24704C5.67953 4.43452 7.57162 5.76163 9.50347 5.92216C9.51172 3.90366 11.0372 2.37612 13.0661 2.37612C14.0119 2.37612 14.8699 2.73514 15.5441 3.38249C15.9131 3.45832 16.3051 3.52053 16.7198 3.56897ZM14.9695 4.87819L14.7268 4.82324L14.5592 4.63931C14.1539 4.19461 13.6453 3.95947 13.0661 3.95947C11.9079 3.95947 11.0868 4.78469 11.0868 5.93864C11.0868 6.12722 11.0819 6.24572 11.0584 6.40146C10.9647 7.02293 10.6161 7.52197 9.89925 7.52197C7.5258 7.52197 5.38457 6.25047 3.29658 4.07882C3.18894 4.40604 3.16362 4.74239 3.16716 5.37318C3.16764 5.45755 3.16764 5.45755 3.1678 5.5428C3.1678 7.16414 3.82466 8.051 5.37991 8.54533L5.93177 8.72073V9.2998C5.93177 10.002 5.26651 10.663 4.29312 10.9591C4.73933 11.2976 5.65188 11.4803 7.12825 11.4803H7.91992V12.272C7.91992 13.4062 6.61661 14.2943 4.64784 14.7581C5.28991 14.9548 6.14481 15.0396 7.12797 15.0396C10.7811 15.0396 14.6496 12.4994 14.6496 8.70947V6.7303C14.6496 6.49772 14.717 6.29584 14.829 6.08594C14.8728 6.00387 14.921 5.92563 14.9805 5.83639C14.9917 5.81959 15.0333 5.75872 15.0663 5.71006L15.129 5.58457C15.2307 5.38124 15.3323 5.17791 15.4339 4.97458C15.276 4.94467 15.1212 4.91255 14.9695 4.87819Z" fill="#474747"/>
</svg>
